<svg width="38" height="39" viewBox="0 0 38 39" fill="none" xmlns="http://www.w3.org/2000/svg">
<g id="Frame 427319035">
<path id="Vector" d="M18.5044 6.62605C19.3677 6.62605 20.0675 5.92626 20.0675 5.06303C20.0675 4.19979 19.3677 3.5 18.5044 3.5C17.6412 3.5 16.9414 4.19979 16.9414 5.06303C16.9414 5.92626 17.6412 6.62605 18.5044 6.62605Z" fill="#04315B" stroke="#04315B" stroke-width="3"/>
<path id="Vector_2" d="M21.63 31.374C21.63 33.1005 20.2305 34.5001 18.504 34.5001C16.7775 34.5001 15.3779 33.1005 15.3779 31.374" stroke="#04315B" stroke-width="3"/>
<path id="Vector_3" d="M9.12605 30.0714V16.0041C9.12605 13.5169 10.1141 11.1315 11.8728 9.37277C13.6316 7.61403 16.017 6.62598 18.5042 6.62598C20.9914 6.62598 23.3768 7.61403 25.1356 9.37277C26.8943 11.1315 27.8824 13.5169 27.8824 16.0041V30.0714M9.12605 30.0714H27.8824M9.12605 30.0714H6M27.8824 30.0714H31.0084" stroke="#04315B" stroke-width="3" stroke-linecap="round" stroke-linejoin="round"/>
</g>
</svg>
