<svg width="19" height="19" viewBox="0 0 19 19" fill="none" xmlns="http://www.w3.org/2000/svg">
<path id="Vector" d="M17.5792 17.7897L12.0528 12.2633M1 7.65793C1 8.50463 1.16677 9.34303 1.49079 10.1253C1.8148 10.9075 2.28972 11.6183 2.88842 12.217C3.48713 12.8157 4.19789 13.2906 4.98014 13.6146C5.76238 13.9386 6.60079 14.1054 7.44748 14.1054C8.29418 14.1054 9.13258 13.9386 9.91483 13.6146C10.6971 13.2906 11.4078 12.8157 12.0065 12.217C12.6052 11.6183 13.0802 10.9075 13.4042 10.1253C13.7282 9.34303 13.895 8.50463 13.895 7.65793C13.895 6.81124 13.7282 5.97283 13.4042 5.19059C13.0802 4.40834 12.6052 3.69758 12.0065 3.09887C11.4078 2.50017 10.6971 2.02525 9.91483 1.70123C9.13258 1.37722 8.29418 1.21045 7.44748 1.21045C6.60079 1.21045 5.76238 1.37722 4.98014 1.70123C4.19789 2.02525 3.48713 2.50017 2.88842 3.09887C2.28972 3.69758 1.8148 4.40834 1.49079 5.19059C1.16677 5.97283 1 6.81124 1 7.65793Z" stroke="#04315B" stroke-width="2" stroke-linecap="round" stroke-linejoin="round"/>
</svg>
