<svg width="38" height="39" viewBox="0 0 38 39" fill="none" xmlns="http://www.w3.org/2000/svg">
<g id="settings">
<g id="Vector">
<path d="M19.0003 24.25C21.6237 24.25 23.7503 22.1234 23.7503 19.5C23.7503 16.8766 21.6237 14.75 19.0003 14.75C16.377 14.75 14.2503 16.8766 14.2503 19.5C14.2503 22.1234 16.377 24.25 19.0003 24.25Z" stroke="#04315B" stroke-width="3" stroke-miterlimit="10" stroke-linecap="round" stroke-linejoin="round"/>
<path d="M3.16699 20.8925V18.1058C3.16699 16.4591 4.51283 15.0975 6.17533 15.0975C9.04116 15.0975 10.2128 13.0708 8.77199 10.585C7.94866 9.15996 8.43949 7.30746 9.88033 6.48413L12.6195 4.91663C13.8703 4.17246 15.4853 4.61579 16.2295 5.86663L16.4037 6.16746C17.8287 8.65329 20.172 8.65329 21.6128 6.16746L21.787 5.86663C22.5312 4.61579 24.1462 4.17246 25.397 4.91663L28.1362 6.48413C29.577 7.30746 30.0678 9.15996 29.2445 10.585C27.8037 13.0708 28.9753 15.0975 31.8412 15.0975C33.4878 15.0975 34.8495 16.4433 34.8495 18.1058V20.8925C34.8495 22.5391 33.5037 23.9008 31.8412 23.9008C28.9753 23.9008 27.8037 25.9275 29.2445 28.4133C30.0678 29.8541 29.577 31.6908 28.1362 32.5141L25.397 34.0816C24.1462 34.8258 22.5312 34.3825 21.787 33.1316L21.6128 32.8308C20.1878 30.345 17.8445 30.345 16.4037 32.8308L16.2295 33.1316C15.4853 34.3825 13.8703 34.8258 12.6195 34.0816L9.88033 32.5141C8.43949 31.6908 7.94866 29.8383 8.77199 28.4133C10.2128 25.9275 9.04116 23.9008 6.17533 23.9008C4.51283 23.9008 3.16699 22.5391 3.16699 20.8925Z" stroke="#04315B" stroke-width="3" stroke-miterlimit="10" stroke-linecap="round" stroke-linejoin="round"/>
</g>
</g>
</svg>
